<?xml version="1.0" encoding="utf-8"?>
<!-- Generator: Adobe Illustrator 27.8.1, SVG Export Plug-In . SVG Version: 6.00 Build 0)  -->
<svg version="1.1" id="Layer_1" xmlns="http://www.w3.org/2000/svg" xmlns:xlink="http://www.w3.org/1999/xlink" x="0px" y="0px"
	 viewBox="0 0 200 200" style="enable-background:new 0 0 200 200;" xml:space="preserve">
<style type="text/css">
	.st0{fill-rule:evenodd;clip-rule:evenodd;fill:#EC7F86;}
	.st1{fill-rule:evenodd;clip-rule:evenodd;fill:#50B7B6;}
	.st2{fill:none;}
</style>
<path class="st0" d="M64.7,60.2c-0.8-32.7,27.6-45.7,51.8-37.1c30.1,10.7,59.5,60.9,21.5,122c24.8-64.7-1.1-101.5-27-110.8
	C91.5,27.4,70.2,36,64.7,60.2z"/>
<path class="st0" d="M130.5,83.4c26.6,22.7,1.8,85.6-32.5,92.8C65.2,183,29.4,134.3,61.8,115c-19.5,18.6,3.9,59.7,36.7,53.4
	C128.1,156.1,144.4,109.6,130.5,83.4z"/>
<path class="st1" d="M106.8,100.8c-17.9-16.7-37.9,1.8-29.4,18c-23.7,21.4,12.7,48.1,33.4,5.4c-21.5,55.2-67.9,14.9-39.5-8.4
	C55.5,93,93.9,72.1,106.8,100.8z"/>
<path class="st1" d="M83.8,121.6c9.7,3.5,21.3-1.2,17.3-9.4c2-0.6,5.7-4.6,4.1-10.8c3.2,5.5,1.1,8.8-1.7,11.7
	C110.9,124.4,90.7,129.7,83.8,121.6z"/>
<path class="st0" d="M69.5,58.2c16.4,14,66.6,0.4,49.4,47.3C128,61.7,75.3,82.7,69.5,58.2z"/>
<rect class="st2" width="200" height="200"/>
<path class="st0" d="M71.2,63.4c3.5,9.5,10.4,9.8,11.2,15.1c1.2,8.5,17.1,12,25.6,10.1c4.3-1,7.3-5.6,9.1-11.4
	c-1,7.1-4.3,11.7-8.8,14c-6.6,3.4-26.6-1.7-28.6-11C79,76.3,70.7,74.5,71.2,63.4z"/>
</svg>
